<?xml version="1.0" encoding="UTF-8" standalone="no"?>
<!DOCTYPE svg PUBLIC "-//W3C//DTD SVG 1.1//EN" "http://www.w3.org/Graphics/SVG/1.1/DTD/svg11.dtd">
<svg width="100%" height="100%" viewBox="0 0 2560 1600" version="1.1" xmlns="http://www.w3.org/2000/svg" xmlns:xlink="http://www.w3.org/1999/xlink" xml:space="preserve" xmlns:serif="http://www.serif.com/" style="fill-rule:evenodd;clip-rule:evenodd;stroke-linejoin:round;stroke-miterlimit:2;">
    <g transform="matrix(1,0,0,1,658.571,506.929)">
        <path d="M2125.38,583.043C2242.76,628.271 2166.58,1206.04 2166.58,1206.04C2166.58,1206.04 226.07,1206.04 407.832,1158.25C591.743,1109.89 436.694,910.111 882.296,883.477C1327.9,856.843 1135.59,697.998 1451.97,540C1768.35,382.002 2008.01,537.815 2125.38,583.043Z" style="fill:rgb(49,49,64);"/>
    </g>
    <g transform="matrix(1,0,0,1,949.04,506.929)">
        <path d="M1900.42,451.976C2017.79,497.203 2166.58,1206.04 2166.58,1206.04C2166.58,1206.04 114.165,1222.73 295.927,1174.93C479.838,1126.58 408.564,1022.22 848.639,947.353C1169.21,892.818 1116.84,429.952 1433.22,271.954C1749.6,113.956 1783.04,406.748 1900.42,451.976Z" style="fill:rgb(60,60,78);"/>
    </g>
    <g transform="matrix(1,0,0,1,1100.44,600.836)">
        <path d="M1684.04,727.014L1773.76,1112.13L179.565,1114.95C179.565,1114.95 219.12,998.806 444.806,975.549C578.458,961.776 642.043,823.891 766.516,744.521C878.626,673.033 1070.42,808.068 1298.79,577.305C1548.87,324.593 1762.98,631.851 1684.04,727.014Z" style="fill:rgb(71,71,92);"/>
    </g>
    <g transform="matrix(1.14146,0,0,1,88.774,122.871)">
        <path d="M-37.758,579.099C-37.758,579.099 406.412,551.445 455.883,294.654C505.354,37.864 744.66,130.875 881.586,73.961C1017.37,17.52 1096.09,-122.871 1096.09,-122.871L-77.772,-122.871L-37.758,579.099" style="fill:rgb(49,49,64);"/>
    </g>
    <g transform="matrix(1.14146,0,0,1.02233,88.774,106.334)">
        <path d="M-77.004,740.773C-77.004,740.773 161.593,672.64 227.993,403.773C294.392,134.906 466.529,197.999 538.067,182.071C823.519,118.517 891.364,-104.012 891.364,-104.012L-77.772,-104.012L-77.004,740.773Z" style="fill:rgb(60,60,78);"/>
    </g>
    <g transform="matrix(1.14146,0,0,1.03592,88.774,107.748)">
        <path d="M-99.904,421.051C-99.904,421.051 39.742,400.36 164.769,271.363C236.184,197.68 248.453,103.754 371.129,56.982C475.821,17.067 562.766,41.207 648.812,17.263C758.788,-13.339 803.194,-104.012 803.194,-104.012L-99.904,-104.012L-99.904,421.051Z" style="fill:rgb(71,71,92);"/>
    </g>
</svg>
