<?xml version="1.0" encoding="UTF-8" standalone="no"?>
<!DOCTYPE svg PUBLIC "-//W3C//DTD SVG 1.1//EN" "http://www.w3.org/Graphics/SVG/1.1/DTD/svg11.dtd">
<svg width="100%" height="100%" viewBox="0 0 473 423" version="1.1" xmlns="http://www.w3.org/2000/svg" xmlns:xlink="http://www.w3.org/1999/xlink" xml:space="preserve" xmlns:serif="http://www.serif.com/" style="fill-rule:evenodd;clip-rule:evenodd;stroke-linejoin:round;stroke-miterlimit:2;">
    <g transform="matrix(1,0,0,1,-474.962,-87.0314)">
        <g transform="matrix(3.00684,0.829287,-0.829287,3.00684,733.745,81.4524)">
            <path d="M9.8,22C9.8,23.105 8.905,24 7.8,24L7,24C5.895,24 5,23.105 5,22L5,2C5,0.895 5.895,0 7,0L7.8,0C8.905,0 9.8,0.895 9.8,2L9.8,22Z" style="fill:rgb(194,194,194);fill-rule:nonzero;"/>
            <path d="M16,0L16.8,0C17.905,0 18.8,0.895 18.8,2L18.8,22C18.8,23.105 17.905,24 16.8,24L16,24C14.895,24 14,23.105 14,22L14,2C14,0.895 14.895,0 16,0Z" style="fill:rgb(194,194,194);fill-rule:nonzero;"/>
        </g>
        <g transform="matrix(2.57406,-0.790753,0.790753,2.57406,566.257,322.858)">
            <path d="M9.8,22C9.8,23.105 8.905,24 7.8,24L7,24C5.895,24 5,23.105 5,22L5,2C5,0.895 5.895,0 7,0L7.8,0C8.905,0 9.8,0.895 9.8,2L9.8,22Z" style="fill:rgb(194,194,194);fill-rule:nonzero;"/>
            <path d="M16,0L16.8,0C17.905,0 18.8,0.895 18.8,2L18.8,22C18.8,23.105 17.905,24 16.8,24L16,24C14.895,24 14,23.105 14,22L14,2C14,0.895 14.895,0 16,0Z" style="fill:rgb(194,194,194);fill-rule:nonzero;"/>
        </g>
        <g transform="matrix(1.39251,0.206452,-0.206452,1.39251,783.188,273.838)">
            <path d="M9.8,22C9.8,23.105 8.905,24 7.8,24L7,24C5.895,24 5,23.105 5,22L5,2C5,0.895 5.895,0 7,0L7.8,0C8.905,0 9.8,0.895 9.8,2L9.8,22Z" style="fill:rgb(194,194,194);fill-rule:nonzero;"/>
            <path d="M16,0L16.8,0C17.905,0 18.8,0.895 18.8,2L18.8,22C18.8,23.105 17.905,24 16.8,24L16,24C14.895,24 14,23.105 14,22L14,2C14,0.895 14.895,0 16,0Z" style="fill:rgb(194,194,194);fill-rule:nonzero;"/>
        </g>
        <g transform="matrix(3.1191,0,0,3.1191,888.403,323.023)">
            <path d="M9.8,22C9.8,23.105 8.905,24 7.8,24L7,24C5.895,24 5,23.105 5,22L5,2C5,0.895 5.895,0 7,0L7.8,0C8.905,0 9.8,0.895 9.8,2L9.8,22Z" style="fill:rgb(194,194,194);fill-rule:nonzero;"/>
            <path d="M16,0L16.8,0C17.905,0 18.8,0.895 18.8,2L18.8,22C18.8,23.105 17.905,24 16.8,24L16,24C14.895,24 14,23.105 14,22L14,2C14,0.895 14.895,0 16,0Z" style="fill:rgb(194,194,194);fill-rule:nonzero;"/>
        </g>
        <g transform="matrix(1.72531,0.447703,-0.447703,1.72531,645.453,460.282)">
            <path d="M9.8,22C9.8,23.105 8.905,24 7.8,24L7,24C5.895,24 5,23.105 5,22L5,2C5,0.895 5.895,0 7,0L7.8,0C8.905,0 9.8,0.895 9.8,2L9.8,22Z" style="fill:rgb(194,194,194);fill-rule:nonzero;"/>
            <path d="M16,0L16.8,0C17.905,0 18.8,0.895 18.8,2L18.8,22C18.8,23.105 17.905,24 16.8,24L16,24C14.895,24 14,23.105 14,22L14,2C14,0.895 14.895,0 16,0Z" style="fill:rgb(194,194,194);fill-rule:nonzero;"/>
        </g>
        <g transform="matrix(1.54867,-1.42123,1.42123,1.54867,841.781,187.954)">
            <path d="M5.647,22.324C4.314,23.073 2.667,22.11 2.667,20.58L2.667,3.42C2.667,1.89 4.314,0.927 5.647,1.677L20.901,10.257C22.26,11.022 22.26,12.979 20.901,13.743L5.647,22.324Z" style="fill:rgb(194,194,194);fill-rule:nonzero;"/>
        </g>
        <g transform="matrix(1.83705,1.02153,-1.02153,1.83705,803.424,351.103)">
            <path d="M5.647,22.324C4.314,23.073 2.667,22.11 2.667,20.58L2.667,3.42C2.667,1.89 4.314,0.927 5.647,1.677L20.901,10.257C22.26,11.022 22.26,12.979 20.901,13.743L5.647,22.324Z" style="fill:rgb(194,194,194);fill-rule:nonzero;"/>
        </g>
        <g transform="matrix(1.21098,-0.326237,0.326237,1.21098,669.24,403.317)">
            <path d="M5.647,22.324C4.314,23.073 2.667,22.11 2.667,20.58L2.667,3.42C2.667,1.89 4.314,0.927 5.647,1.677L20.901,10.257C22.26,11.022 22.26,12.979 20.901,13.743L5.647,22.324Z" style="fill:rgb(194,194,194);fill-rule:nonzero;"/>
        </g>
        <g transform="matrix(1.11707,0.621173,-0.621173,1.11707,668.262,211.209)">
            <path d="M5.647,22.324C4.314,23.073 2.667,22.11 2.667,20.58L2.667,3.42C2.667,1.89 4.314,0.927 5.647,1.677L20.901,10.257C22.26,11.022 22.26,12.979 20.901,13.743L5.647,22.324Z" style="fill:rgb(194,194,194);fill-rule:nonzero;"/>
        </g>
        <g transform="matrix(-1.83705,1.02153,1.02153,1.83705,604.338,120.996)">
            <path d="M5.647,22.324C4.314,23.073 2.667,22.11 2.667,20.58L2.667,3.42C2.667,1.89 4.314,0.927 5.647,1.677L20.901,10.257C22.26,11.022 22.26,12.979 20.901,13.743L5.647,22.324Z" style="fill:rgb(194,194,194);fill-rule:nonzero;"/>
        </g>
        <g transform="matrix(-2.05479,-0.442855,-0.442855,2.05479,525.415,359.701)">
            <path d="M5.647,22.324C4.314,23.073 2.667,22.11 2.667,20.58L2.667,3.42C2.667,1.89 4.314,0.927 5.647,1.677L20.901,10.257C22.26,11.022 22.26,12.979 20.901,13.743L5.647,22.324Z" style="fill:rgb(194,194,194);fill-rule:nonzero;"/>
        </g>
        <g transform="matrix(2.05723,0.648815,-0.648815,2.05723,814.904,447.848)">
            <path d="M16,11C16,13.209 14.209,15 12,15C9.791,15 8,13.209 8,11L8,4C8,1.791 9.791,0 12,0C14.209,0 16,1.791 16,4L16,11ZM19,9C19.552,9 20,9.448 20,10L20,11C20,15.418 16.418,19 12,19C7.582,19 4,15.418 4,11L4,10C4,9.448 4.448,9 5,9C5.552,9 6,9.448 6,10L6,11C6,14.309 8.691,17 12,17C15.309,17 18,14.309 18,11L18,10C18,9.448 18.448,9 19,9ZM14,22C13.448,22 13,21.552 13,21C13,20.448 12.552,20 12,20C11.448,20 11,20.448 11,21C11,21.552 10.552,22 10,22L8,22C7.448,22 7,22.448 7,23C7,23.552 7.448,24 8,24L16,24C16.552,24 17,23.552 17,23C17,22.448 16.552,22 16,22L14,22Z" style="fill:rgb(194,194,194);fill-rule:nonzero;"/>
        </g>
        <g transform="matrix(1.70547,-0.671783,0.671783,1.70547,689.201,279.383)">
            <path d="M16,11C16,13.209 14.209,15 12,15C9.791,15 8,13.209 8,11L8,4C8,1.791 9.791,0 12,0C14.209,0 16,1.791 16,4L16,11ZM19,9C19.552,9 20,9.448 20,10L20,11C20,15.418 16.418,19 12,19C7.582,19 4,15.418 4,11L4,10C4,9.448 4.448,9 5,9C5.552,9 6,9.448 6,10L6,11C6,14.309 8.691,17 12,17C15.309,17 18,14.309 18,11L18,10C18,9.448 18.448,9 19,9ZM14,22C13.448,22 13,21.552 13,21C13,20.448 12.552,20 12,20C11.448,20 11,20.448 11,21C11,21.552 10.552,22 10,22L8,22C7.448,22 7,22.448 7,23C7,23.552 7.448,24 8,24L16,24C16.552,24 17,23.552 17,23C17,22.448 16.552,22 16,22L14,22Z" style="fill:rgb(194,194,194);fill-rule:nonzero;"/>
        </g>
        <g transform="matrix(2.07928,1.18746,-1.18746,2.07928,553.133,202.956)">
            <path d="M16,11C16,13.209 14.209,15 12,15C9.791,15 8,13.209 8,11L8,4C8,1.791 9.791,0 12,0C14.209,0 16,1.791 16,4L16,11ZM19,9C19.552,9 20,9.448 20,10L20,11C20,15.418 16.418,19 12,19C7.582,19 4,15.418 4,11L4,10C4,9.448 4.448,9 5,9C5.552,9 6,9.448 6,10L6,11C6,14.309 8.691,17 12,17C15.309,17 18,14.309 18,11L18,10C18,9.448 18.448,9 19,9ZM14,22C13.448,22 13,21.552 13,21C13,20.448 12.552,20 12,20C11.448,20 11,20.448 11,21C11,21.552 10.552,22 10,22L8,22C7.448,22 7,22.448 7,23C7,23.552 7.448,24 8,24L16,24C16.552,24 17,23.552 17,23C17,22.448 16.552,22 16,22L14,22Z" style="fill:rgb(194,194,194);fill-rule:nonzero;"/>
        </g>
    </g>
</svg>
