<?xml version="1.0" standalone="no"?>
<!DOCTYPE svg PUBLIC "-//W3C//DTD SVG 20010904//EN"
 "http://www.w3.org/TR/2001/REC-SVG-20010904/DTD/svg10.dtd">
<svg version="1.0" xmlns="http://www.w3.org/2000/svg"
 width="984.000000pt" height="984.000000pt" viewBox="0 0 984.000000 984.000000"
 preserveAspectRatio="xMidYMid meet">
<metadata>
Created by potrace 1.14, written by Peter Selinger 2001-2017
</metadata>
<g transform="translate(0.000000,984.000000) scale(0.100000,-0.100000)"
fill="#000000" stroke="none">
<path d="M4910 8816 c-128 -42 -204 -116 -288 -281 -33 -64 -82 -179 -87 -204
-2 -9 -14 -43 -25 -76 -21 -57 -97 -342 -105 -395 -3 -14 -14 -68 -25 -120
-11 -52 -22 -108 -25 -125 -6 -37 -15 -101 -20 -135 -2 -14 -4 -25 -5 -25 -1
0 -3 -11 -5 -25 -6 -58 -17 -135 -20 -140 -2 -3 -6 -38 -10 -78 -3 -39 -8 -82
-11 -94 -2 -13 -6 -43 -9 -68 -3 -25 -7 -65 -10 -90 -3 -25 -7 -65 -9 -90 -3
-25 -8 -74 -12 -110 -9 -87 -10 -98 -29 -355 -3 -38 -8 -97 -10 -130 -3 -33
-7 -116 -11 -185 -3 -69 -7 -154 -9 -190 -24 -386 -24 -1501 0 -1930 6 -100
15 -280 19 -365 3 -57 10 -145 23 -285 3 -36 7 -83 8 -105 10 -132 16 -192 20
-205 2 -8 7 -51 11 -95 7 -91 10 -118 18 -160 3 -16 8 -48 11 -70 6 -57 13
-114 20 -157 3 -21 7 -55 10 -75 3 -21 7 -49 10 -63 3 -14 8 -41 11 -60 14
-97 22 -137 41 -225 8 -38 16 -79 18 -90 1 -11 8 -38 14 -60 6 -22 12 -51 15
-65 2 -14 5 -26 7 -27 2 -3 2 -3 13 -53 17 -71 77 -257 108 -335 93 -233 192
-359 319 -405 237 -87 634 2 1167 261 90 43 167 79 172 79 6 0 10 3 10 8 0 4
21 17 48 30 111 54 587 341 678 409 17 13 34 23 37 23 4 0 15 7 24 14 10 8
104 74 208 147 105 73 192 135 195 138 3 3 57 45 120 93 181 135 304 231 320
248 3 3 41 35 85 70 44 36 82 67 85 70 3 3 34 30 70 60 36 30 70 60 76 65 6 6
39 35 74 65 35 30 78 69 96 85 18 17 74 68 125 115 120 110 413 404 509 510
41 46 80 88 85 94 6 6 35 40 65 76 30 36 57 67 60 70 3 3 30 37 60 75 30 39
59 75 65 82 19 23 30 38 78 103 26 36 51 70 56 76 4 5 14 21 21 35 7 13 16 26
19 29 3 3 12 16 20 30 8 14 32 53 52 86 82 134 175 342 195 438 15 71 24 125
24 146 0 14 0 32 1 40 2 17 -8 110 -16 153 -21 110 -141 379 -225 503 -16 25
-30 47 -30 49 0 4 -113 168 -145 210 -99 130 -264 329 -361 435 -23 25 -56 61
-74 80 -176 193 -501 503 -765 730 -60 52 -112 97 -115 100 -5 5 -93 78 -133
110 -11 8 -24 20 -31 25 -72 64 -554 431 -608 463 -15 9 -28 20 -28 24 0 4 -7
8 -15 8 -8 0 -15 5 -15 10 0 6 -6 10 -14 10 -8 0 -16 4 -18 8 -5 15 -375 259
-558 369 -58 35 -112 67 -120 73 -8 5 -42 23 -75 41 -33 17 -62 34 -65 38 -9
10 -347 182 -435 221 -27 12 -66 29 -85 38 -19 9 -37 17 -40 18 -3 0 -23 8
-45 18 -60 26 -231 84 -315 107 -213 59 -425 73 -540 35z m865 -1430 c11 -3
47 -12 80 -21 33 -9 65 -18 70 -19 16 -5 48 -17 83 -32 18 -8 37 -14 42 -14 5
0 48 -18 95 -40 47 -22 89 -40 92 -40 2 0 18 -9 34 -21 16 -11 29 -18 29 -15
0 3 17 -4 38 -16 20 -11 60 -33 87 -48 28 -15 74 -41 103 -58 29 -18 57 -32
62 -32 6 0 10 -4 10 -10 0 -5 7 -10 15 -10 8 0 15 -4 15 -10 0 -5 5 -10 12
-10 11 0 388 -250 438 -290 14 -11 48 -37 76 -58 61 -45 102 -76 208 -162 45
-35 86 -68 91 -72 6 -5 22 -18 36 -31 14 -12 51 -44 83 -72 32 -27 77 -66 99
-85 202 -175 469 -456 628 -660 253 -325 340 -574 271 -773 -11 -31 -17 -58
-14 -61 3 -3 0 -6 -6 -6 -7 0 -12 -6 -12 -13 0 -25 -133 -258 -151 -265 -5 -2
-9 -8 -9 -13 0 -15 -112 -159 -217 -281 -80 -92 -280 -296 -408 -417 -69 -65
-271 -240 -324 -281 -18 -14 -44 -35 -59 -48 -40 -34 -332 -254 -367 -276 -16
-11 -36 -25 -42 -32 -7 -7 -29 -22 -50 -35 -21 -13 -40 -26 -43 -29 -3 -3 -39
-27 -80 -53 -41 -26 -84 -54 -95 -62 -11 -8 -32 -21 -47 -28 -15 -6 -28 -15
-28 -19 0 -5 -4 -8 -10 -8 -5 0 -36 -17 -67 -37 -59 -38 -362 -193 -443 -227
-67 -28 -230 -86 -230 -82 0 2 -21 -2 -46 -10 -162 -49 -335 -26 -405 54 -24
27 -89 127 -89 138 0 3 -10 26 -21 52 -12 25 -22 51 -23 57 -1 5 -9 33 -18 60
-9 28 -20 64 -24 80 -4 17 -8 32 -9 35 -13 50 -64 289 -70 334 -2 12 -6 41
-10 66 -3 25 -8 59 -9 75 -2 17 -7 50 -10 75 -4 25 -9 61 -11 80 -2 19 -6 56
-9 81 -3 26 -8 75 -10 110 -3 35 -8 91 -11 124 -16 169 -14 141 -31 530 -17
411 -2 1150 31 1510 11 123 21 216 29 285 6 49 19 155 21 170 1 8 6 42 10 75
4 33 9 63 11 67 3 4 7 24 9 45 2 21 11 72 20 113 9 41 18 84 20 95 2 11 8 35
13 53 6 17 9 32 6 32 -3 0 0 8 5 18 6 11 12 30 15 43 18 92 106 292 148 339
70 77 133 100 262 95 50 -2 100 -6 111 -9z"/>
<path d="M2281 7924 c-44 -23 -132 -90 -311 -238 -47 -39 -87 -73 -90 -76 -3
-3 -34 -30 -69 -60 -36 -30 -74 -64 -86 -75 -11 -11 -56 -51 -99 -90 -91 -81
-468 -454 -571 -566 -231 -249 -459 -531 -600 -744 -33 -49 -63 -91 -67 -93
-5 -2 -8 -7 -8 -11 0 -4 -31 -59 -69 -122 -154 -259 -269 -551 -299 -764 -10
-73 -4 -380 8 -380 1 0 3 -9 5 -20 2 -11 7 -35 10 -54 20 -107 109 -334 193
-491 25 -47 50 -95 56 -107 6 -13 14 -23 19 -23 4 0 7 -4 7 -10 0 -5 17 -36
37 -67 21 -32 42 -65 48 -74 43 -71 217 -309 282 -386 10 -12 34 -41 53 -64
45 -55 159 -188 185 -216 11 -11 54 -58 95 -103 41 -45 125 -132 186 -193 174
-175 279 -274 509 -482 13 -11 46 -40 76 -65 29 -25 73 -63 98 -84 69 -59 331
-268 371 -296 29 -21 47 -25 106 -25 45 0 77 5 87 14 10 7 17 10 17 7 0 -10
78 46 121 86 125 116 184 290 133 391 -40 78 -180 232 -556 612 -337 341 -434
441 -525 543 -37 42 -87 96 -110 120 -23 24 -55 60 -70 80 -15 20 -34 43 -43
52 -8 8 -31 36 -50 60 -19 25 -38 47 -42 48 -5 2 -8 10 -8 17 0 7 -4 15 -8 17
-12 5 -132 167 -132 178 0 6 -4 10 -10 10 -5 0 -10 6 -10 14 0 8 -4 16 -8 18
-12 5 -81 120 -134 223 -54 104 -102 237 -124 340 -15 70 -11 236 8 313 25
106 25 103 39 137 6 17 13 35 14 40 11 50 151 301 230 411 79 111 242 316 305
384 8 9 51 56 95 105 115 126 154 166 584 600 387 391 412 417 486 510 21 28
42 52 45 55 30 27 52 153 37 215 -49 199 -224 382 -371 389 -28 1 -62 -3 -75
-10z"/>
<path d="M3155 6916 c-26 -12 -220 -164 -274 -214 -10 -9 -36 -32 -57 -51
-162 -141 -333 -308 -483 -469 -93 -100 -105 -114 -156 -176 -16 -21 -41 -50
-55 -66 -47 -53 -201 -269 -255 -357 -72 -117 -140 -258 -175 -362 -73 -215
-74 -369 -4 -580 37 -111 114 -271 176 -363 21 -31 38 -60 38 -63 0 -3 15 -26
33 -50 17 -23 41 -55 52 -71 18 -24 49 -66 88 -115 11 -16 72 -88 110 -133
143 -167 444 -466 604 -600 21 -17 47 -40 58 -51 12 -11 37 -32 56 -46 19 -15
45 -37 59 -49 14 -12 52 -43 85 -68 33 -25 62 -49 65 -52 49 -53 160 -31 237
48 52 54 94 115 93 137 0 3 0 6 1 8 1 1 2 22 3 46 1 32 -4 53 -21 78 -13 19
-23 36 -23 38 0 9 -98 113 -331 350 -130 132 -252 256 -270 276 -229 244 -342
385 -448 557 -28 46 -51 87 -51 90 0 4 -7 21 -16 37 -88 166 -89 398 -3 553
10 17 16 32 13 32 -3 0 4 13 15 29 12 16 21 32 21 36 0 16 192 286 239 335 9
9 50 54 91 101 41 46 204 214 362 374 158 159 299 305 315 324 15 18 37 43 48
55 77 81 80 178 11 291 -72 118 -175 176 -251 141z"/>
</g>
</svg>
