<svg width="24" height="24" viewBox="0 0 24 24" fill="none" xmlns="http://www.w3.org/2000/svg">
<g clip-path="url(#clip0_50_167)">
<path d="M6.18798 8.71948C6.62698 8.28048 7.11398 7.91848 7.63198 7.63248C10.519 6.04148 14.221 6.88748 16.077 9.70148L13.831 11.9465C13.187 10.4775 11.588 9.64148 9.99698 9.99748C9.39798 10.1315 8.82898 10.4305 8.36398 10.8955L4.05998 15.2015C2.75298 16.5085 2.75298 18.6345 4.05998 19.9415C5.36698 21.2485 7.49298 21.2485 8.79998 19.9415L10.127 18.6145C11.334 19.0935 12.628 19.2845 13.906 19.1895L10.977 22.1185C8.46598 24.6295 4.39498 24.6295 1.88398 22.1185C-0.627017 19.6075 -0.627017 15.5365 1.88398 13.0255L6.18798 8.71948V8.71948ZM13.024 1.88348L10.095 4.81248C11.372 4.71648 12.667 4.90848 13.874 5.38648L15.2 4.06048C16.507 2.75348 18.633 2.75348 19.94 4.06048C21.247 5.36748 21.247 7.49348 19.94 8.80048L15.635 13.1055C14.324 14.4165 12.195 14.4055 10.895 13.1055C10.592 12.8025 10.331 12.4255 10.168 12.0545L7.92198 14.2995C8.15798 14.6575 8.40298 14.9665 8.71798 15.2815C9.52998 16.0935 10.564 16.6985 11.754 16.9855C13.296 17.3565 14.948 17.1515 16.367 16.3685C16.885 16.0825 17.372 15.7205 17.811 15.2815L22.115 10.9765C24.627 8.46548 24.627 4.39448 22.116 1.88348C19.605 -0.626523 15.535 -0.626523 13.024 1.88348V1.88348Z" fill="url(#paint0_linear_50_167)"/>
</g>
<defs>
<linearGradient id="paint0_linear_50_167" x1="-0.443682" y1="12.0014" x2="23.5547" y2="12.0014" gradientUnits="userSpaceOnUse">
<stop stop-color="#FF832B"/>
<stop offset="1" stop-color="#FFC02B"/>
</linearGradient>
<clipPath id="clip0_50_167">
<rect width="24" height="24" fill="white"/>
</clipPath>
</defs>
</svg>
