<svg width="32" height="32" viewBox="0 0 32 32" fill="none" xmlns="http://www.w3.org/2000/svg">
<path d="M32 6C32 7.10457 31.1046 8 30 8H2C0.895431 8 0 7.10457 0 6V4.66667C0 3.5621 0.895431 2.66667 2 2.66667H30C31.1046 2.66667 32 3.5621 32 4.66667V6ZM32 15.3333C32 14.2288 31.1046 13.3333 30 13.3333H2C0.895431 13.3333 0 14.2288 0 15.3333V16.6667C0 17.7712 0.895431 18.6667 2 18.6667H30C31.1046 18.6667 32 17.7712 32 16.6667V15.3333ZM32 26C32 24.8954 31.1046 24 30 24H2C0.895431 24 0 24.8954 0 26V27.3333C0 28.4379 0.895431 29.3333 2 29.3333H30C31.1046 29.3333 32 28.4379 32 27.3333V26Z" fill="white"/>
</svg>
