<svg width="24" height="24" viewBox="0 0 24 24" fill="none" xmlns="http://www.w3.org/2000/svg">
<path d="M16.9399 20.6113L22.2867 22.1347L23.8144 16.7508L22.1654 11.4778L23.2504 10.1688L22.7793 9.81383L23.5289 9.10386L22.9578 8.64534L23.7073 8.0537L23.2076 7.65434H23.2148L24 3.69775L22.815 0L13.8539 6.87116L13.851 6.86894L22.815 0L15.1838 2.9508H8.81618L8.84973 3.04547L8.81618 2.9582L1.18501 0L0 3.69035L0.799524 7.65434L0.285544 8.0463L1.04938 8.63794L0.478287 9.10386L1.2207 9.81383L0.749554 10.1688L1.83462 11.4778L0.192742 16.7508L1.71327 22.1347L7.04581 20.6113L7.49482 16.7878H7.49554L10.251 19.0064L10.6936 18.6884H13.3064H10.6936L10.251 19.0138L7.04581 20.6113L8.08804 21.4987L10.1939 23H13.7989L15.912 21.4913L16.9399 20.6113ZM13.9917 22.0645L13.9845 22.0682H13.9917V22.0645ZM7.04581 20.6113L10.251 19.0138L7.49554 16.7952L7.04581 20.6113ZM13.7561 19.0138L16.9399 20.6113L13.7618 19.0094L13.7561 19.0138ZM16.5045 16.7937L16.5052 16.793L16.5045 16.7893V16.7937ZM18.7096 12.329L16.5659 16.6643H16.5723L18.7246 12.3135L18.7096 12.329ZM7.42415 14.5691L9.29447 13.6817L10.0683 15.359L9.29447 13.6817L7.42415 14.5691ZM7.42415 14.5714L8.74479 14.9685L7.42415 14.5691V14.5714ZM16.5901 14.5617L15.2588 14.9685L16.5901 14.5691L17.6452 13.4509L16.5901 14.5617ZM17.2397 9.99871L18.7174 12.3135L13.4363 12.565L13.8396 14.865L13.442 12.565L18.7174 12.3135H18.7246L17.2397 9.99871L22.1654 11.4778L17.2397 9.99132L17.0998 9.86929L17.2397 9.99871ZM10.5651 12.559L10.4745 13.0752L10.5651 12.565V12.559ZM10.558 12.5576H10.5644L10.5509 12.3105L10.558 12.5576Z" fill="url(#paint0_linear_53_189)"/>
<defs>
<linearGradient id="paint0_linear_53_189" x1="-0.444444" y1="11.5" x2="23.5556" y2="11.5" gradientUnits="userSpaceOnUse">
<stop stop-color="#FF832B"/>
<stop offset="1" stop-color="#FFC02B"/>
</linearGradient>
</defs>
</svg>
