<svg width="24" height="24" viewBox="0 0 24 24" fill="none" xmlns="http://www.w3.org/2000/svg">
<g clip-path="url(#clip0_33_159)">
<path fill-rule="evenodd" clip-rule="evenodd" d="M19.8129 7.31836C22.7421 10.9395 24.1685 15.2168 23.9824 19.1309C22.6285 15.8242 20.5261 12.4727 17.7379 9.38476L16.8033 10.3164C16.6975 10.4219 16.5251 10.4219 16.4193 10.3164L13.4646 7.37304C13.3588 7.26758 13.3588 7.0957 13.4646 6.99023L14.3718 6.08594C11.1996 3.34375 7.77468 1.30273 4.41636 0.0390597C8.37424 -0.257815 12.7436 1.10351 16.4546 4.00976L16.8641 3.60156C16.9699 3.49609 17.1423 3.49609 17.2481 3.60156L20.2028 6.54687C20.3086 6.65234 20.3086 6.82422 20.2028 6.92969L19.8129 7.31836ZM13.3549 8.30273L15.7492 10.6895L2.88807 23.5098C2.22973 24.166 1.15209 24.166 0.493755 23.5098C-0.164585 22.8535 -0.164585 21.7793 0.493755 21.123L13.3549 8.30273Z" fill="white"/>
</g>
<defs>
<clipPath id="clip0_33_159">
<rect width="24" height="24" fill="white"/>
</clipPath>
</defs>
</svg>
