<svg width="24" height="24" viewBox="0 0 24 24" fill="none" xmlns="http://www.w3.org/2000/svg">
<path d="M1.42822 13.3341L1.51232 13.2021L6.57597 5.28C6.59281 5.25376 6.61641 5.23255 6.6443 5.21861C6.67218 5.20467 6.70332 5.19851 6.73441 5.20078C6.7655 5.20305 6.79541 5.21367 6.82097 5.23152C6.84653 5.24937 6.86681 5.27378 6.87965 5.30219C7.72567 7.19824 8.45567 9.55604 8.11383 11.0242C7.96783 11.6281 7.56799 12.4461 7.11792 13.2021C7.05952 13.3123 6.99567 13.4202 6.92793 13.5241C6.91205 13.5477 6.89059 13.5669 6.86545 13.5802C6.84031 13.5934 6.81229 13.6003 6.78387 13.6H1.57617C1.43601 13.6 1.35425 13.4482 1.42822 13.3341Z" fill="white"/>
<path d="M24 14.8061V16.0598C24 16.1322 23.956 16.196 23.8922 16.2241C23.5001 16.3923 22.1581 17.0082 21.6002 17.7841C20.176 19.7658 19.0882 22.6002 16.656 22.6002H6.51003C2.91415 22.6002 0 19.6763 0 16.0679V15.9523C0 15.8561 0.0778667 15.7783 0.174032 15.7783H5.83025C5.94199 15.7783 6.02414 15.8822 6.01402 15.9924C5.9742 16.3663 6.04442 16.7437 6.21608 17.0783C6.38053 17.4109 6.63474 17.691 6.94997 17.8868C7.2652 18.0826 7.62891 18.1863 8 18.1863H10.8001V16.0002H8.03193C7.99952 15.9998 7.96784 15.9906 7.94028 15.9735C7.91272 15.9565 7.89033 15.9322 7.87552 15.9034C7.86071 15.8746 7.85403 15.8423 7.85621 15.8099C7.85838 15.7776 7.86933 15.7465 7.88787 15.7199C7.91824 15.6739 7.95211 15.6264 7.98793 15.5719C8.3491 15.0521 8.6856 14.5155 8.9963 13.964C9.25015 13.5201 9.4962 13.0459 9.69398 12.5702C9.73409 12.4841 9.76601 12.3961 9.79794 12.3101C9.85205 12.1583 9.90812 12.0162 9.94822 11.8741C9.98793 11.7541 10.0202 11.628 10.0522 11.51C10.146 11.1059 10.1861 10.678 10.1861 10.2342C10.1861 10.0602 10.1783 9.87794 10.162 9.70391C10.1542 9.51392 10.13 9.32392 10.1059 9.13393C10.0873 8.96352 10.0613 8.794 10.028 8.62585C9.98635 8.37024 9.93308 8.11666 9.86841 7.86587L9.84622 7.7701C9.79794 7.59607 9.75822 7.43021 9.70216 7.25618C9.54738 6.72347 9.36981 6.19765 9.16994 5.68016C9.09986 5.48199 9.02005 5.292 8.94024 5.10201C8.82227 4.81585 8.70197 4.55616 8.59218 4.3101C8.53611 4.19798 8.48822 4.09597 8.44034 3.99202C8.38692 3.87505 8.3315 3.75901 8.27409 3.64396C8.23399 3.5583 8.18805 3.4781 8.15612 3.3979L7.8139 2.76601C7.80318 2.74689 7.79834 2.72503 7.79999 2.70317C7.80164 2.68131 7.8097 2.66042 7.82317 2.64313C7.83664 2.62583 7.85492 2.6129 7.87571 2.60595C7.8965 2.599 7.91888 2.59834 7.94004 2.60405L10.0802 3.18415H10.086C10.0899 3.18415 10.0923 3.1861 10.0938 3.1861L10.3761 3.26397L10.686 3.35196L10.8001 3.38388V2.11193C10.8001 1.49796 11.2922 1 11.8999 1C12.204 1 12.48 1.12381 12.6782 1.32587C12.876 1.52832 13.0002 1.80397 13.0002 2.11232V4.00019L13.228 4.06405C13.2466 4.06988 13.2642 4.07869 13.2801 4.09013C13.3362 4.13218 13.4164 4.19408 13.518 4.27C13.5982 4.33385 13.6843 4.41211 13.7882 4.49192C13.9942 4.65817 14.2398 4.87191 14.51 5.11797C14.5821 5.18026 14.6521 5.24411 14.7164 5.30796C15.104 5.66469 15.4743 6.03979 15.826 6.43196C15.9303 6.54993 16.0323 6.66985 16.1363 6.79599C16.2402 6.92408 16.3504 7.04983 16.4462 7.17598C16.5723 7.34417 16.7082 7.5182 16.8262 7.70002C16.8822 7.78606 16.9461 7.87405 17.0002 7.96009C17.152 8.1898 17.286 8.42807 17.4141 8.66595C17.4682 8.77613 17.5242 8.89605 17.5721 9.01402C17.7142 9.3321 17.826 9.65641 17.898 9.97995C17.9202 10.05 17.9361 10.1259 17.9439 10.1941V10.21C17.9681 10.3062 17.9763 10.4082 17.984 10.5122C18.0172 10.8457 17.9983 11.1823 17.928 11.51C17.897 11.6516 17.8576 11.7913 17.81 11.9282C17.7621 12.0644 17.7142 12.2062 17.6519 12.3401C17.5314 12.6235 17.3876 12.8964 17.2221 13.1561C17.168 13.2519 17.1041 13.3539 17.0399 13.4501C16.9698 13.5521 16.8982 13.6482 16.834 13.7421C16.746 13.862 16.6521 13.9881 16.556 14.1003C16.4703 14.2182 16.3819 14.3362 16.2862 14.4401C16.1577 14.5937 16.0256 14.7443 15.8902 14.8918C15.81 14.986 15.724 15.0821 15.636 15.1682C15.5503 15.264 15.4619 15.35 15.3821 15.4302C15.2482 15.5641 15.1361 15.6681 15.0422 15.7541L14.8223 15.9562C14.7896 15.9846 14.7476 16.0003 14.7043 16.0002H12.9998V18.1863H15.1439C15.6221 18.1861 16.0845 18.015 16.4477 17.7039C16.5739 17.5941 17.1236 17.118 17.7738 16.4C17.7956 16.3758 17.824 16.3584 17.8556 16.3502L23.7777 14.6379C23.8037 14.6307 23.831 14.6295 23.8574 14.6345C23.8839 14.6396 23.9089 14.6507 23.9304 14.6669C23.9519 14.6832 23.9693 14.7043 23.9813 14.7284C23.9933 14.7526 23.9996 14.7791 23.9996 14.8061H24Z" fill="white"/>
</svg>
