<svg width="24" height="24" viewBox="0 0 24 24" fill="none" xmlns="http://www.w3.org/2000/svg">
<path d="M16 11C16 13.209 14.209 15 12 15C9.791 15 8 13.209 8 11V4C8 1.791 9.791 0 12 0C14.209 0 16 1.791 16 4V11ZM19 9C19.5523 9 20 9.44771 20 10V11C20 15.418 16.418 19 12 19C7.582 19 4 15.418 4 11V10C4 9.44771 4.44772 9 5 9C5.55228 9 6 9.44771 6 10V11C6 14.309 8.691 17 12 17C15.309 17 18 14.309 18 11V10C18 9.44771 18.4477 9 19 9ZM14 22C13.4477 22 13 21.5523 13 21C13 20.4477 12.5523 20 12 20C11.4477 20 11 20.4477 11 21C11 21.5523 10.5523 22 10 22H8C7.44772 22 7 22.4477 7 23C7 23.5523 7.44772 24 8 24H16C16.5523 24 17 23.5523 17 23C17 22.4477 16.5523 22 16 22H14Z" fill="url(#paint0_linear_8_304)"/>
<defs>
<linearGradient id="paint0_linear_8_304" x1="3.7037" y1="12" x2="19.7037" y2="12" gradientUnits="userSpaceOnUse">
<stop stop-color="#FF832B"/>
<stop offset="1" stop-color="#FFC02B"/>
</linearGradient>
</defs>
</svg>
