<svg width="24" height="24" viewBox="0 0 24 24" fill="none" xmlns="http://www.w3.org/2000/svg">
<path d="M4.91617 7.73653C8.82632 4.08782 15.1737 4.08782 19.0838 7.73653L19.5546 8.17901C19.752 8.36036 19.752 8.65777 19.5546 8.83912L17.945 10.3407C17.8463 10.435 17.6868 10.435 17.5881 10.3407L16.9427 9.7386C14.2094 7.19249 9.79057 7.19249 7.05726 9.7386L6.36634 10.3842C6.26764 10.4785 6.10819 10.4785 6.00949 10.3842L4.39987 8.88264C4.20247 8.7013 4.20247 8.40389 4.39987 8.22254L4.91617 7.73653ZM22.417 10.8412L23.8519 12.1759C24.0494 12.3573 24.0494 12.6547 23.8519 12.836L17.3907 18.864C17.1933 19.0453 16.8744 19.0453 16.6846 18.864L12.0987 14.5842C12.0531 14.5407 11.9696 14.5407 11.9241 14.5842L7.33819 18.864C7.14078 19.0453 6.82189 19.0453 6.63208 18.864L0.148054 12.836C-0.0493515 12.6547 -0.0493515 12.3573 0.148054 12.1759L1.58304 10.8412C1.78045 10.6598 2.09934 10.6598 2.28915 10.8412L6.87504 15.121C6.9206 15.1645 7.00411 15.1645 7.04967 15.121L11.6356 10.8412C11.833 10.6598 12.1519 10.6598 12.3417 10.8412L16.9276 15.121C16.9731 15.1645 17.0566 15.1645 17.1022 15.121L21.6881 10.8412C21.9007 10.6598 22.2196 10.6598 22.417 10.8412Z" fill="url(#paint0_linear_53_188)"/>
<defs>
<linearGradient id="paint0_linear_53_188" x1="-0.444444" y1="12" x2="23.5556" y2="12" gradientUnits="userSpaceOnUse">
<stop stop-color="#FF832B"/>
<stop offset="1" stop-color="#FFC02B"/>
</linearGradient>
</defs>
</svg>
